<svg xmlns="http://www.w3.org/2000/svg" xmlns:xlink="http://www.w3.org/1999/xlink" width="256" zoomAndPan="magnify" viewBox="0 0 192 191.999996" height="256" preserveAspectRatio="xMidYMid meet" version="1.0"><defs><g/><clipPath id="0e69cb4270"><path d="M 74 20 L 184.507812 20 L 184.507812 68 L 74 68 Z M 74 20 " clip-rule="nonzero"/></clipPath><clipPath id="b799a393b4"><path d="M 15.007812 19.199219 L 77 19.199219 L 77 68.699219 L 15.007812 68.699219 Z M 15.007812 19.199219 " clip-rule="nonzero"/></clipPath></defs><g clip-path="url(#0e69cb4270)"><path fill="#ffffff" d="M 184.507812 67.929688 L 124.636719 20.070312 L 74.59375 20.070312 L 134.46875 67.929688 Z M 184.507812 67.929688 " fill-opacity="1" fill-rule="nonzero"/></g><g clip-path="url(#b799a393b4)"><path fill="#ffffff" d="M 15.851562 68.679688 C 15.632812 68.679688 15.417969 68.582031 15.269531 68.394531 C 15.015625 68.070312 15.070312 67.601562 15.386719 67.347656 L 75.257812 19.488281 C 75.582031 19.230469 76.050781 19.285156 76.300781 19.605469 C 76.554688 19.929688 76.5 20.398438 76.179688 20.65625 L 16.3125 68.515625 C 16.175781 68.628906 16.015625 68.679688 15.851562 68.679688 Z M 15.851562 68.679688 " fill-opacity="1" fill-rule="nonzero"/></g><path fill="#ffffff" d="M 62.464844 56.15625 L 72.359375 56.15625 L 72.359375 66.121094 L 62.464844 66.121094 Z M 62.464844 56.15625 " fill-opacity="1" fill-rule="nonzero"/><path fill="#ffffff" d="M 76.832031 56.15625 L 86.726562 56.15625 L 86.726562 66.121094 L 76.832031 66.121094 Z M 76.832031 56.15625 " fill-opacity="1" fill-rule="nonzero"/><path fill="#ffffff" d="M 62.464844 42.34375 L 72.359375 42.34375 L 72.359375 52.308594 L 62.464844 52.308594 Z M 62.464844 42.34375 " fill-opacity="1" fill-rule="nonzero"/><path fill="#ffffff" d="M 76.832031 42.34375 L 86.726562 42.34375 L 86.726562 52.308594 L 76.832031 52.308594 Z M 76.832031 42.34375 " fill-opacity="1" fill-rule="nonzero"/><path fill="#ffffff" d="M 48.027344 42.34375 L 38.128906 49.90625 L 38.128906 27.089844 L 48.027344 27.089844 Z M 48.027344 42.34375 " fill-opacity="1" fill-rule="nonzero"/><g fill="#f9943b" fill-opacity="1"><g transform="translate(1.887483, 115.214032)"><g><path d="M 3.503906 0 L 5.519531 0 L 5.519531 -14.101562 L 27.109375 -14.101562 L 27.109375 0 L 29.121094 0 L 29.121094 -30.65625 L 27.109375 -30.65625 L 27.109375 -16.070312 L 5.519531 -16.070312 L 5.519531 -30.65625 L 3.503906 -30.65625 Z M 3.503906 0 "/></g></g></g><g fill="#f9943b" fill-opacity="1"><g transform="translate(38.012024, 115.214032)"><g><path d="M 17.691406 0.527344 C 26.539062 0.527344 33.019531 -6.042969 33.019531 -15.285156 C 33.019531 -24.523438 26.539062 -31.136719 17.691406 -31.136719 C 8.890625 -31.136719 2.410156 -24.523438 2.410156 -15.285156 C 2.410156 -6.042969 8.890625 0.527344 17.691406 0.527344 Z M 17.691406 -1.402344 C 10.027344 -1.402344 4.421875 -7.183594 4.421875 -15.285156 C 4.421875 -23.386719 10.027344 -29.210938 17.691406 -29.210938 C 25.398438 -29.210938 31.003906 -23.386719 31.003906 -15.285156 C 31.003906 -7.183594 25.398438 -1.402344 17.691406 -1.402344 Z M 17.691406 -1.402344 "/></g></g></g><g fill="#f9943b" fill-opacity="1"><g transform="translate(76.982678, 115.214032)"><g><path d="M 1.359375 0 L 3.414062 0 L 8.976562 -25.050781 L 9.238281 -25.050781 L 18.347656 -4.246094 L 19.179688 -4.246094 L 28.246094 -25.050781 L 28.550781 -25.050781 L 34.113281 0 L 36.171875 0 L 29.472656 -31.136719 L 28.550781 -31.136719 L 18.917969 -8.890625 L 18.613281 -8.890625 L 8.976562 -31.136719 L 8.058594 -31.136719 Z M 1.359375 0 "/></g></g></g><g fill="#f9943b" fill-opacity="1"><g transform="translate(118.055076, 115.214032)"><g><path d="M 3.503906 0 L 5.5625 0 L 5.5625 -30.65625 L 3.503906 -30.65625 Z M 3.503906 0 "/></g></g></g><g fill="#f9943b" fill-opacity="1"><g transform="translate(130.666336, 115.214032)"><g><path d="M 3.503906 0 L 5.5625 0 L 5.5625 -14.234375 L 18.875 -14.234375 L 18.875 -15.984375 L 5.5625 -15.984375 L 5.5625 -28.726562 L 25.3125 -28.726562 L 25.3125 -30.65625 L 3.503906 -30.65625 Z M 3.503906 0 "/></g></g></g><g fill="#f9943b" fill-opacity="1"><g transform="translate(160.967292, 115.214032)"><g><path d="M 13.53125 0 L 15.546875 0 L 15.546875 -12.480469 L 28.597656 -30.65625 L 26.1875 -30.65625 L 14.671875 -14.800781 L 14.40625 -14.800781 L 2.976562 -30.65625 L 0.527344 -30.65625 L 13.53125 -12.523438 Z M 13.53125 0 "/></g></g></g><path stroke-linecap="round" transform="matrix(0.751275, 0, 0, 0.75, 11.522708, 136.143975)" fill="none" stroke-linejoin="miter" d="M 6.500342 6.500741 L 214.126623 6.500741 " stroke="#ffffff" stroke-width="13" stroke-opacity="1" stroke-miterlimit="4"/></svg>