<svg xmlns="http://www.w3.org/2000/svg" xmlns:xlink="http://www.w3.org/1999/xlink" width="500" zoomAndPan="magnify" viewBox="0 0 375 374.999991" height="500" preserveAspectRatio="xMidYMid meet" version="1.0"><defs><g/><clipPath id="50824fb4ab"><path d="M 154 95 L 317.734375 95 L 317.734375 166 L 154 166 Z M 154 95 " clip-rule="nonzero"/></clipPath><clipPath id="2ebc3033e0"><path d="M 65.734375 93.742188 L 158 93.742188 L 158 166.492188 L 65.734375 166.492188 Z M 65.734375 93.742188 " clip-rule="nonzero"/></clipPath></defs><g clip-path="url(#50824fb4ab)"><path fill="#333333" d="M 317.734375 165.363281 L 228.722656 95.019531 L 154.324219 95.019531 L 243.339844 165.363281 Z M 317.734375 165.363281 " fill-opacity="1" fill-rule="nonzero"/></g><g clip-path="url(#2ebc3033e0)"><path fill="#333333" d="M 66.988281 166.460938 C 66.667969 166.460938 66.34375 166.320312 66.121094 166.046875 C 65.746094 165.570312 65.824219 164.882812 66.300781 164.503906 L 155.3125 94.160156 C 155.789062 93.785156 156.484375 93.867188 156.859375 94.335938 C 157.238281 94.8125 157.15625 95.5 156.683594 95.875 L 67.675781 166.222656 C 67.472656 166.386719 67.230469 166.460938 66.988281 166.460938 Z M 66.988281 166.460938 " fill-opacity="1" fill-rule="nonzero"/></g><path fill="#333333" d="M 136.289062 148.058594 L 151 148.058594 L 151 162.707031 L 136.289062 162.707031 Z M 136.289062 148.058594 " fill-opacity="1" fill-rule="nonzero"/><path fill="#333333" d="M 157.648438 148.058594 L 172.363281 148.058594 L 172.363281 162.707031 L 157.648438 162.707031 Z M 157.648438 148.058594 " fill-opacity="1" fill-rule="nonzero"/><path fill="#333333" d="M 136.289062 127.753906 L 151 127.753906 L 151 142.402344 L 136.289062 142.402344 Z M 136.289062 127.753906 " fill-opacity="1" fill-rule="nonzero"/><path fill="#333333" d="M 157.648438 127.753906 L 172.363281 127.753906 L 172.363281 142.402344 L 157.648438 142.402344 Z M 157.648438 127.753906 " fill-opacity="1" fill-rule="nonzero"/><path fill="#333333" d="M 114.824219 127.753906 L 100.113281 138.871094 L 100.113281 105.335938 L 114.824219 105.335938 Z M 114.824219 127.753906 " fill-opacity="1" fill-rule="nonzero"/><g fill="#ff914d" fill-opacity="1"><g transform="translate(55.412778, 249.336664)"><g><path d="M 6.386719 0 L 10.058594 0 L 10.058594 -25.707031 L 49.417969 -25.707031 L 49.417969 0 L 53.089844 0 L 53.089844 -55.886719 L 49.417969 -55.886719 L 49.417969 -29.300781 L 10.058594 -29.300781 L 10.058594 -55.886719 L 6.386719 -55.886719 Z M 6.386719 0 "/></g></g></g><g fill="#ff914d" fill-opacity="1"><g transform="translate(121.269529, 249.336664)"><g><path d="M 32.253906 0.957031 C 48.378906 0.957031 60.195312 -11.015625 60.195312 -27.863281 C 60.195312 -44.707031 48.378906 -56.761719 32.253906 -56.761719 C 16.207031 -56.761719 4.390625 -44.707031 4.390625 -27.863281 C 4.390625 -11.015625 16.207031 0.957031 32.253906 0.957031 Z M 32.253906 -2.554688 C 18.28125 -2.554688 8.0625 -13.09375 8.0625 -27.863281 C 8.0625 -42.632812 18.28125 -53.25 32.253906 -53.25 C 46.304688 -53.25 56.523438 -42.632812 56.523438 -27.863281 C 56.523438 -13.09375 46.304688 -2.554688 32.253906 -2.554688 Z M 32.253906 -2.554688 "/></g></g></g><g fill="#ff914d" fill-opacity="1"><g transform="translate(192.314851, 249.336664)"><g><path d="M 2.476562 0 L 6.226562 0 L 16.367188 -45.667969 L 16.84375 -45.667969 L 33.453125 -7.742188 L 34.96875 -7.742188 L 51.496094 -45.667969 L 52.054688 -45.667969 L 62.191406 0 L 65.945312 0 L 53.730469 -56.761719 L 52.054688 -56.761719 L 34.488281 -16.207031 L 33.929688 -16.207031 L 16.367188 -56.761719 L 14.691406 -56.761719 Z M 2.476562 0 "/></g></g></g><g fill="#ff914d" fill-opacity="1"><g transform="translate(267.191738, 249.336664)"><g><path d="M 6.386719 0 L 47.980469 0 L 47.980469 -3.511719 L 10.058594 -3.511719 L 10.058594 -26.90625 L 41.515625 -26.90625 L 41.515625 -30.097656 L 10.058594 -30.097656 L 10.058594 -52.371094 L 47.023438 -52.371094 L 47.023438 -55.886719 L 6.386719 -55.886719 Z M 6.386719 0 "/></g></g></g><path stroke-linecap="round" transform="matrix(0.749966, 0, 0, 0.75, 60.316141, 278.259006)" fill="none" stroke-linejoin="miter" d="M 2.000446 1.998409 L 341.021114 1.998409 " stroke="#000000" stroke-width="4" stroke-opacity="1" stroke-miterlimit="4"/></svg>